<!DOCTYPE svg PUBLIC "-//W3C//DTD SVG 1.1//EN" "http://www.w3.org/Graphics/SVG/1.1/DTD/svg11.dtd">
<!-- Uploaded to: SVG Repo, www.svgrepo.com, Transformed by: SVG Repo Mixer Tools -->
<svg fill="rgb(168, 167, 160)" height="800px" width="800px" version="1.1" id="Layer_1" xmlns="http://www.w3.org/2000/svg" xmlns:xlink="http://www.w3.org/1999/xlink" viewBox="0 0 512 512" xml:space="preserve" stroke="rgb(168, 167, 160)">
<g id="SVGRepo_bgCarrier" stroke-width="0"/>
<g id="SVGRepo_tracerCarrier" stroke-linecap="round" stroke-linejoin="round"/>
<g id="SVGRepo_iconCarrier"> <g> <g> <path d="M321.362,174.298h-2.723v-68.085c0-3.141-1.8-6.003-4.631-7.364c-2.828-1.361-6.19-0.977-8.644,0.984l-22.129,17.705 l-22.129-17.704c-2.985-2.387-7.224-2.387-10.208,0l-22.13,17.704l-22.129-17.704c-2.454-1.963-5.815-2.345-8.644-0.984 c-2.831,1.361-4.631,4.223-4.631,7.364v68.084h-2.723c-4.513,0-8.17,3.657-8.17,8.17s3.657,8.17,8.17,8.17h130.723 c4.513,0,8.17-3.657,8.17-8.17S325.875,174.298,321.362,174.298z M302.297,174.298h-92.596v-51.087h0.001l13.959,11.168 c2.985,2.387,7.224,2.387,10.208,0L256,116.675l22.129,17.704c2.985,2.387,7.224,2.387,10.208,0l13.959-11.168V174.298z"/> </g> </g> <g> <g> <path d="M340.426,283.234H171.574c-4.513,0-8.17,3.657-8.17,8.17c0,4.513,3.657,8.17,8.17,8.17h168.851 c4.513,0,8.17-3.657,8.17-8.17C348.596,286.891,344.939,283.234,340.426,283.234z"/> </g> </g> <g> <g> <path d="M340.426,239.66H171.574c-4.513,0-8.17,3.657-8.17,8.17c0,4.513,3.657,8.17,8.17,8.17h168.851 c4.513,0,8.17-3.657,8.17-8.17C348.596,243.317,344.939,239.66,340.426,239.66z"/> </g> </g> <g> <g> <path d="M508.305,360.825c-2.305-1.51-5.215-1.755-7.742-0.654l-46.667,20.361l-46.666-20.361c-2.083-0.909-4.45-0.909-6.535,0 l-46.659,20.361l-46.661-20.361c-2.085-0.909-4.451-0.909-6.536,0l-46.657,20.361l-46.657-20.361 c-2.527-1.102-5.438-0.857-7.743,0.654c-2.306,1.508-3.695,4.079-3.695,6.835v70.808c0,13.515-10.996,24.511-24.511,24.511 c-13.515,0-24.511-10.996-24.511-24.511c0-4.513-3.657-8.17-8.17-8.17s-8.17,3.657-8.17,8.17 c0,22.526,18.325,40.851,40.851,40.851s40.851-18.325,40.851-40.851v-58.329l38.487,16.796c2.085,0.909,4.451,0.909,6.536,0 l46.657-20.361l46.661,20.361c2.085,0.909,4.451,0.909,6.536,0l46.66-20.361l46.666,20.361c2.083,0.909,4.451,0.909,6.534,0 l38.497-16.797v58.33c0,31.535-25.657,57.191-57.191,57.191H171.574c-31.535,0-57.191-25.657-57.191-57.191V73.532 c0-22.526-18.325-40.851-40.851-40.851S32.681,51.006,32.681,73.532v32.681c0,4.513,3.657,8.17,8.17,8.17s8.17-3.657,8.17-8.17 V73.532c0-13.515,10.996-24.511,24.511-24.511c13.515,0,24.511,10.996,24.511,24.511v73.879l-36.678-16.006 c-2.085-0.909-4.451-0.909-6.536,0L16.34,148.201V73.532c0-31.535,25.657-57.191,57.191-57.191h266.894 c31.535,0,57.191,25.657,57.191,57.191v262.242c0,4.513,3.657,8.17,8.17,8.17s8.17-3.657,8.17-8.17V73.532 C413.957,32.986,380.972,0,340.426,0H73.532C32.986,0,0,32.986,0,73.532v87.149c0,2.756,1.389,5.327,3.695,6.835 c2.306,1.512,5.216,1.756,7.743,0.654l46.658-20.361l39.946,17.433v273.227c0,40.546,32.986,73.532,73.532,73.532h266.894 C479.014,512,512,479.014,512,438.468V367.66C512,364.904,510.611,362.334,508.305,360.825z"/> </g> </g> </g>
</svg>